<svg width="1600" height="900" viewBox="0 0 1600 900" xmlns="http://www.w3.org/2000/svg" role="img" aria-labelledby="title desc">
  <title id="title">Foto grupal del equipo - ilustración</title>
  <desc id="desc">Placeholder minimalista con siluetas abstractas y gradientes en tonos azules y naranjos.</desc>
  <defs>
    <linearGradient id="bg" x1="0" y1="0" x2="1" y2="1">
      <stop offset="0%" stop-color="#EAF2FF" />
      <stop offset="100%" stop-color="#FDF4EC" />
    </linearGradient>
    <linearGradient id="accent" x1="0" y1="0" x2="1" y2="1">
      <stop offset="0%" stop-color="#3571DF" stop-opacity="0.9" />
      <stop offset="100%" stop-color="#F4621D" stop-opacity="0.9" />
    </linearGradient>
    <filter id="shadow" x="-10%" y="-10%" width="120%" height="120%">
      <feDropShadow dx="0" dy="24" stdDeviation="28" flood-color="#0F172A" flood-opacity="0.18" />
    </filter>
  </defs>
  <rect width="1600" height="900" fill="url(#bg)" rx="32" />
  <g filter="url(#shadow)">
    <ellipse cx="800" cy="620" rx="620" ry="260" fill="#E6E6E6" opacity="0.35" />
  </g>
  <g transform="translate(160,220)">
    <circle cx="210" cy="150" r="120" fill="#3571DF" opacity="0.2" />
    <rect x="120" y="270" width="180" height="260" rx="90" fill="#3571DF" opacity="0.25" />
  </g>
  <g transform="translate(420,180)">
    <circle cx="240" cy="160" r="130" fill="#F4621D" opacity="0.2" />
    <rect x="130" y="300" width="220" height="280" rx="110" fill="#F4621D" opacity="0.22" />
  </g>
  <g transform="translate(760,240)">
    <circle cx="240" cy="140" r="120" fill="#3571DF" opacity="0.25" />
    <rect x="140" y="280" width="200" height="260" rx="100" fill="#3571DF" opacity="0.22" />
  </g>
  <g transform="translate(1040,240)">
    <circle cx="200" cy="140" r="110" fill="#F4621D" opacity="0.2" />
    <rect x="120" y="270" width="190" height="250" rx="95" fill="#F4621D" opacity="0.22" />
  </g>
  <rect x="360" y="430" width="860" height="140" rx="70" fill="url(#accent)" opacity="0.65" />
  <text x="800" y="530" text-anchor="middle" fill="#0F172A" opacity="0.7" font-family="'Inter', 'Helvetica Neue', Arial" font-size="52" font-weight="600">Equipo Partner Accounting</text>
</svg>
